<svg width="29" height="29" viewBox="0 0 29 29" fill="none" xmlns="http://www.w3.org/2000/svg">
<path fill-rule="evenodd" clip-rule="evenodd" d="M4.12248 4.8575L4.20783 4.76831C6.47523 2.5007 7.95179 1.89965 9.52723 2.8056C9.98042 3.0662 10.4053 3.43098 10.983 4.01774L12.7551 5.85529C13.7339 6.92333 13.9564 7.94779 13.6377 9.14756L13.5937 9.30639L13.545 9.46432L13.3081 10.1594C12.8011 11.7181 13.0128 12.5975 14.8168 14.401C16.6927 16.2765 17.5684 16.43 19.2474 15.8433L19.5466 15.7393L19.9084 15.6218L20.0668 15.5778C21.342 15.2376 22.4193 15.5091 23.5617 16.6508L24.9896 18.0299L25.4099 18.4433C25.8758 18.9185 26.1838 19.295 26.4113 19.693C27.3116 21.268 26.7099 22.7436 24.3771 25.0677L24.1552 25.2926C23.8069 25.6283 23.4815 25.8688 23.0034 26.0958C22.201 26.4768 21.253 26.6204 20.1514 26.4672C17.4369 26.0897 13.9941 23.9479 9.63171 19.5866C9.2766 19.2316 8.93649 18.8835 8.61104 18.542L7.97958 17.8681C2.06251 11.4394 1.5405 7.4903 3.96538 5.01355L4.12248 4.8575ZM9.55476 5.08441C9.1715 4.70656 8.8931 4.47623 8.64765 4.33508C8.10472 4.02287 7.51853 4.15484 6.43366 5.08858L6.09278 5.39311C6.03332 5.448 5.9725 5.50497 5.91027 5.56409L5.51938 5.9448L5.48417 5.98881L5.21917 6.25504C4.5788 6.90913 4.27547 7.70742 4.53686 9.08031C4.96578 11.3331 6.92907 14.3892 10.8794 18.3385C14.9954 22.4535 18.1315 24.4045 20.3945 24.7192C21.7137 24.9027 22.3866 24.5832 23.0728 23.8802L23.5961 23.352C23.8415 23.0953 24.0512 22.8625 24.2283 22.6499L24.4698 22.3456C25.087 21.5235 25.1434 21.0303 24.8794 20.5685C24.779 20.3928 24.6329 20.2001 24.4202 19.9647L24.1317 19.66L23.961 19.4892L22.1596 17.7498C21.5577 17.1946 21.1463 17.1159 20.5217 17.2825L20.3414 17.3344L19.5952 17.5877C17.4306 18.2868 15.8689 17.9478 13.5692 15.6487C11.1875 13.2675 10.9081 11.6774 11.7062 9.38794L11.7574 9.24081L11.8989 8.81428L11.9685 8.54241C12.0919 7.95073 11.951 7.53818 11.315 6.90203C11.2888 6.87584 11.2595 6.84633 11.2277 6.81403L9.55476 5.08441Z" fill="#233334"/>
</svg>
