<svg width="25" height="25" viewBox="0 0 25 25" fill="none" xmlns="http://www.w3.org/2000/svg">
<g id="Info Square">
<g id="Group 3">
<mask id="mask0_4063_269" style="mask-type:luminance" maskUnits="userSpaceOnUse" x="0" y="0" width="25" height="25">
<path id="Clip 2" fill-rule="evenodd" clip-rule="evenodd" d="M0.606445 0.579102H24.1342V24.1069H0.606445V0.579102Z" fill="white"/>
</mask>
<g mask="url(#mask0_4063_269)">
<path id="Fill 1" fill-rule="evenodd" clip-rule="evenodd" d="M7.26977 2.34393C4.29467 2.34393 2.37128 4.38262 2.37128 7.53887V17.1476C2.37128 20.3039 4.29467 22.3426 7.26977 22.3426H17.4667C20.4453 22.3426 22.3699 20.3039 22.3699 17.1476V7.53887C22.3699 4.38262 20.4453 2.34393 17.4691 2.34393H7.26977ZM17.4665 24.1069H7.26952C3.28391 24.1069 0.606445 21.3095 0.606445 17.1474V7.53863C0.606445 3.37656 3.28391 0.579102 7.26952 0.579102H17.4688C21.4556 0.579102 24.1343 3.37656 24.1343 7.53863V17.1474C24.1343 21.3095 21.4556 24.1069 17.4665 24.1069Z" fill="#233334"/>
</g>
</g>
<path id="Fill 4" fill-rule="evenodd" clip-rule="evenodd" d="M12.3637 17.9311C11.8767 17.9311 11.4814 17.5358 11.4814 17.0488V12.3432C11.4814 11.8562 11.8767 11.4609 12.3637 11.4609C12.8508 11.4609 13.246 11.8562 13.246 12.3432V17.0488C13.246 17.5358 12.8508 17.9311 12.3637 17.9311Z" fill="#233334"/>
<path id="Fill 6" fill-rule="evenodd" clip-rule="evenodd" d="M12.3698 9.05395C11.7192 9.05395 11.1875 8.52811 11.1875 7.87756C11.1875 7.22702 11.7086 6.70117 12.358 6.70117H12.3698C13.0203 6.70117 13.5462 7.22702 13.5462 7.87756C13.5462 8.52811 13.0203 9.05395 12.3698 9.05395Z" fill="#233334"/>
</g>
</svg>
