<svg width="29" height="29" viewBox="0 0 29 29" fill="none" xmlns="http://www.w3.org/2000/svg">
<g id="Linkedin Fill">
<path id="Vector" d="M25.9849 4.47022V24.5381C25.9849 24.9969 25.8026 25.4369 25.4782 25.7614C25.1537 26.0858 24.7137 26.2681 24.2549 26.2681H4.18702C3.7282 26.2681 3.28817 26.0858 2.96373 25.7614C2.6393 25.4369 2.45703 24.9969 2.45703 24.5381V4.47022C2.45703 4.0114 2.6393 3.57137 2.96373 3.24694C3.28817 2.9225 3.7282 2.74023 4.18702 2.74023L24.2549 2.74023C24.7137 2.74023 25.1537 2.9225 25.4782 3.24694C25.8026 3.57137 25.9849 4.0114 25.9849 4.47022ZM9.37698 11.7362H5.91701V22.8081H9.37698V11.7362ZM9.68838 7.9302C9.6902 7.66848 9.64046 7.40896 9.54198 7.16647C9.44351 6.92397 9.29824 6.70325 9.11446 6.5169C8.93068 6.33055 8.712 6.18223 8.47089 6.0804C8.22979 5.97857 7.97099 5.92522 7.70927 5.92341H7.64699C7.11476 5.92341 6.60433 6.13484 6.22798 6.51118C5.85164 6.88753 5.64021 7.39796 5.64021 7.9302C5.64021 8.46243 5.85164 8.97286 6.22798 9.34921C6.60433 9.72555 7.11476 9.93698 7.64699 9.93698C7.90873 9.94342 8.16917 9.89822 8.41343 9.80397C8.6577 9.70972 8.881 9.56827 9.07057 9.38769C9.26015 9.20711 9.41229 8.99095 9.51829 8.75155C9.6243 8.51215 9.68209 8.25422 9.68838 7.99248V7.9302ZM22.5249 16.0819C22.5249 12.7534 20.4074 11.4594 18.3037 11.4594C17.6149 11.4249 16.9291 11.5716 16.3148 11.8848C15.7004 12.1981 15.1788 12.667 14.8022 13.2447H14.7053V11.7362H11.453V22.8081H14.9129V16.9192C14.8629 16.3161 15.0529 15.7176 15.4416 15.2537C15.8303 14.7899 16.3864 14.4981 16.9889 14.4419H17.1204C18.2207 14.4419 19.0372 15.1339 19.0372 16.8777V22.8081H22.4972L22.5249 16.0819Z" fill="#0A1A17"/>
</g>
</svg>
