<svg width="21" height="24" viewBox="0 0 21 24" fill="none" xmlns="http://www.w3.org/2000/svg">
<g id="Location">
<path id="Fill 1" fill-rule="evenodd" clip-rule="evenodd" d="M10.6656 8.25482C9.53034 8.25482 8.60687 9.17829 8.60687 10.3147C8.60687 11.4499 9.53034 12.3722 10.6656 12.3722C11.8008 12.3722 12.7242 11.4499 12.7242 10.3147C12.7242 9.17829 11.8008 8.25482 10.6656 8.25482ZM10.6656 14.1368C8.55746 14.1368 6.84229 12.4228 6.84229 10.3147C6.84229 8.20541 8.55746 6.49023 10.6656 6.49023C12.7736 6.49023 14.4888 8.20541 14.4888 10.3147C14.4888 12.4228 12.7736 14.1368 10.6656 14.1368Z" fill="#233334"/>
<g id="Group 5">
<mask id="mask0_4063_356" style="mask-type:luminance" maskUnits="userSpaceOnUse" x="0" y="0" width="21" height="24">
<path id="Clip 4" fill-rule="evenodd" clip-rule="evenodd" d="M0.959473 0.607422H20.3693V23.547H0.959473V0.607422Z" fill="white"/>
</mask>
<g mask="url(#mask0_4063_356)">
<path id="Fill 3" fill-rule="evenodd" clip-rule="evenodd" d="M10.6641 2.37225C6.2856 2.37225 2.72348 5.96848 2.72348 10.387C2.72348 16.009 9.33951 21.4863 10.6641 21.778C11.9887 21.4851 18.6048 16.0078 18.6048 10.387C18.6048 5.96848 15.0427 2.37225 10.6641 2.37225ZM10.6642 23.547C8.55377 23.547 0.958984 17.0157 0.958984 10.3868C0.958984 4.99418 5.31281 0.607422 10.6642 0.607422C16.0156 0.607422 20.3694 4.99418 20.3694 10.3868C20.3694 17.0157 12.7747 23.547 10.6642 23.547Z" fill="#233334"/>
</g>
</g>
</g>
</svg>
