<svg width="85" height="85" viewBox="0 0 85 85" fill="none" xmlns="http://www.w3.org/2000/svg">
<g id="Frame 1261152759">
<rect id="Icon Background" x="0.0771484" y="0.0234375" width="84.7002" height="84.7002" rx="18.8223" fill="#ECEBFF"/>
<path id="Ellipse 438" d="M42.4271 20.0225C36.4991 20.0225 30.814 22.3773 26.6223 26.569C22.4306 30.7607 20.0757 36.4459 20.0757 42.3739C20.0757 48.3019 22.4306 53.987 26.6223 58.1787C30.814 62.3704 36.4991 64.7253 42.4271 64.7253L42.4271 42.3739L42.4271 20.0225Z" fill="#22739C"/>
<path id="Ellipse 439" d="M42.4269 64.7251C48.3549 64.7251 54.04 62.3702 58.2317 58.1785C62.4234 53.9868 64.7783 48.3016 64.7783 42.3737C64.7783 36.4457 62.4234 30.7605 58.2317 26.5688C54.04 22.3771 48.3549 20.0222 42.4269 20.0222L42.4269 42.3737L42.4269 64.7251Z" fill="#B1E5FF"/>
</g>
</svg>
