<svg width="51" height="54" viewBox="0 0 51 54" fill="none" xmlns="http://www.w3.org/2000/svg">
<path d="M50.8448 39.7805L50.8557 39.7745H50.8344L38.3338 33.0009L25.8124 26.2153L13.2905 33.0009L0.789827 39.7745H0.768555L0.779438 39.7805L0.768555 39.7864H0.789827L13.2905 46.5601L25.8124 53.3456L38.3338 46.5601L50.8344 39.7864H50.8557L50.8448 39.7805Z" fill="#D8F2FF"/>
<path d="M50.8448 13.7644L50.8557 13.7589H50.8344L38.3338 6.98477L25.8124 0.199219L13.2905 6.98477L0.789827 13.7589H0.768555L0.779438 13.7644L0.768555 13.7703H0.789827L13.2905 20.5445L25.8124 27.33L38.3338 20.5445L50.8344 13.7703H50.8557L50.8448 13.7644Z" fill="#22739C"/>
<path d="M0.789551 13.2129V40.3318L25.8121 26.7726L0.789551 13.2129Z" fill="#B1E5FF"/>
<path d="M50.8351 13.2129V40.3318L25.813 26.7726L50.8351 13.2129Z" fill="#B1E5FF"/>
</svg>
